<svg data-v-423bf9ae="" xmlns="http://www.w3.org/2000/svg" viewBox="0 0 422 90" class="iconLeft"><!----><!----><!----><g data-v-423bf9ae="" id="900206ca-2300-4e37-b15a-5193ef7469d9" fill="#FFFFFF" transform="matrix(5.212858280353729,0,0,5.212858280353729,142.87082755917208,-4.860988319354092)"><path d="M3.46 12.63L0.43 12.63L0.43 12.33L0.43 12.33Q1.19 12.33 1.32 12.05L1.32 12.05L1.32 7.32L1.32 7.32Q0.45 7.25 0.43 7.25L0.43 7.25L0.43 6.93L0.43 6.93Q0.70 6.93 1.48 6.63L1.48 6.63L1.48 6.63Q2.25 6.33 2.58 6.33L2.58 6.33L2.58 12.05L2.58 12.05Q2.70 12.33 3.46 12.33L3.46 12.33L3.46 12.63ZM1.90 5.43L1.90 5.43L1.90 5.43Q1.60 5.43 1.36 5.20L1.36 5.20L1.36 5.20Q1.13 4.97 1.13 4.61L1.13 4.61L1.13 4.61Q1.13 4.28 1.34 4.05L1.34 4.05L1.34 4.05Q1.54 3.81 1.86 3.81L1.86 3.81L1.86 3.81Q2.17 3.81 2.41 4.05L2.41 4.05L2.41 4.05Q2.65 4.28 2.65 4.65L2.65 4.65L2.65 4.65Q2.65 4.97 2.44 5.20L2.44 5.20L2.44 5.20Q2.23 5.43 1.90 5.43ZM7.21 12.63L4.19 12.63L4.19 12.33L4.19 12.33Q4.94 12.33 5.07 12.05L5.07 12.05L5.07 7.32L5.07 7.32Q4.20 7.25 4.19 7.25L4.19 7.25L4.19 6.93L4.19 6.93Q4.45 6.93 5.23 6.63L5.23 6.63L5.23 6.63Q6.01 6.33 6.33 6.33L6.33 6.33L6.33 6.96L6.33 6.96Q7.07 6.33 7.88 6.33L7.88 6.33L7.88 6.33Q9.56 6.33 10.04 7.14L10.04 7.14L10.04 7.14Q10.82 6.33 11.79 6.33L11.79 6.33L11.79 6.33Q14.14 6.33 14.14 7.92L14.14 7.92L14.14 12.05L14.14 12.05Q14.27 12.33 15.02 12.33L15.02 12.33L15.02 12.63L12.00 12.63L12.00 12.33L12.00 12.33Q12.75 12.33 12.88 12.05L12.88 12.05L12.88 8.44L12.88 8.44Q12.88 7.53 12.61 7.17L12.61 7.17L12.61 7.17Q12.35 6.80 11.70 6.80L11.70 6.80L11.70 6.80Q10.88 6.80 10.18 7.48L10.18 7.48L10.18 7.48Q10.23 7.66 10.23 7.92L10.23 7.92L10.23 12.05L10.23 12.05Q10.36 12.33 11.12 12.33L11.12 12.33L11.12 12.63L8.09 12.63L8.09 12.33L8.09 12.33Q8.85 12.33 8.97 12.05L8.97 12.05L8.97 8.44L8.97 8.44Q8.97 7.53 8.71 7.17L8.71 7.17L8.71 7.17Q8.44 6.80 7.80 6.80L7.80 6.80L7.80 6.80Q7 6.80 6.33 7.42L6.33 7.42L6.33 12.05L6.33 12.05Q6.45 12.33 7.21 12.33L7.21 12.33L7.21 12.63ZM17.12 4.44L17.72 4.44L17.72 6.47L18.93 6.47L18.93 6.89L17.72 6.89L17.72 11.34L17.72 11.34Q17.72 11.77 17.88 12.01L17.88 12.01L17.88 12.01Q18.03 12.24 18.45 12.24L18.45 12.24L18.45 12.24Q18.70 12.24 18.96 11.99L18.96 11.99L18.96 11.99Q19.22 11.75 19.32 11.31L19.32 11.31L19.66 11.48L19.66 11.48Q19.36 12.77 17.98 12.77L17.98 12.77L17.98 12.77Q16.38 12.77 16.38 11.23L16.38 11.23L16.38 6.89L15.40 6.89L15.40 6.47L15.40 6.47Q16.06 6.47 16.59 5.92L16.59 5.92L16.59 5.92Q17.12 5.38 17.12 4.44L17.12 4.44ZM23.32 12.63L20.30 12.63L20.30 12.33L20.30 12.33Q21.06 12.33 21.18 12.05L21.18 12.05L21.18 7.32L21.18 7.32Q20.31 7.25 20.30 7.25L20.30 7.25L20.30 6.93L20.30 6.93Q20.57 6.93 21.34 6.63L21.34 6.63L21.34 6.63Q22.12 6.33 22.44 6.33L22.44 6.33L22.44 12.05L22.44 12.05Q22.57 12.33 23.32 12.33L23.32 12.33L23.32 12.63ZM21.77 5.43L21.77 5.43L21.77 5.43Q21.46 5.43 21.23 5.20L21.23 5.20L21.23 5.20Q21 4.97 21 4.61L21 4.61L21 4.61Q21 4.28 21.20 4.05L21.20 4.05L21.20 4.05Q21.41 3.81 21.73 3.81L21.73 3.81L21.73 3.81Q22.04 3.81 22.27 4.05L22.27 4.05L22.27 4.05Q22.51 4.28 22.51 4.65L22.51 4.65L22.51 4.65Q22.51 4.97 22.30 5.20L22.30 5.20L22.30 5.20Q22.09 5.43 21.77 5.43ZM25.19 7.50L25.19 7.50L25.19 7.50Q25.38 7.50 25.53 7.64L25.53 7.64L25.53 7.64Q25.68 7.78 25.68 8.08L25.68 8.08L25.68 8.08Q25.68 8.32 25.49 8.44L25.49 8.44L25.49 8.44Q25.30 8.57 25.05 8.57L25.05 8.57L25.05 8.57Q24.78 8.57 24.61 8.38L24.61 8.38L24.61 8.38Q24.44 8.19 24.44 7.87L24.44 7.87L24.44 7.87Q24.44 7.14 25.05 6.73L25.05 6.73L25.05 6.73Q25.65 6.33 26.75 6.33L26.75 6.33L26.75 6.33Q28.06 6.33 28.66 6.97L28.66 6.97L28.66 6.97Q29.27 7.62 29.27 8.68L29.27 8.68L29.27 11.45L29.27 11.45Q29.27 11.90 29.42 12.11L29.42 12.11L29.42 12.11Q29.57 12.32 29.78 12.32L29.78 12.32L29.78 12.32Q29.96 12.32 30.11 12.22L30.11 12.22L30.11 12.22Q30.25 12.12 30.25 11.98L30.25 11.98L30.51 11.98L30.51 11.98Q30.51 12.38 30.22 12.56L30.22 12.56L30.22 12.56Q29.93 12.74 29.22 12.74L29.22 12.74L29.22 12.74Q28.52 12.74 28.22 12.17L28.22 12.17L28.22 12.17Q27.40 12.77 26.17 12.77L26.17 12.77L26.17 12.77Q24.07 12.77 24.07 11.06L24.07 11.06L24.07 11.06Q24.07 10.70 24.32 10.40L24.32 10.40L24.32 10.40Q24.58 10.11 25.07 9.91L25.07 9.91L25.07 9.91Q25.56 9.72 26.00 9.60L26.00 9.60L26.00 9.60Q26.43 9.48 27.08 9.33L27.08 9.33L27.08 9.33Q27.73 9.18 28.01 9.10L28.01 9.10L28.01 9.10Q28.01 7.92 27.71 7.38L27.71 7.38L27.71 7.38Q27.40 6.83 26.61 6.83L26.61 6.83L26.61 6.83Q25.35 6.83 25.19 7.50ZM28.10 11.82L28.10 11.82L28.10 11.82Q28.01 11.51 28.01 11.06L28.01 11.06L28.01 9.41L28.01 9.41Q27.86 9.46 27.49 9.56L27.49 9.56L27.49 9.56Q27.12 9.66 26.89 9.73L26.89 9.73L26.89 9.73Q26.66 9.80 26.33 9.94L26.33 9.94L26.33 9.94Q26.01 10.08 25.83 10.22L25.83 10.22L25.83 10.22Q25.65 10.36 25.51 10.59L25.51 10.59L25.51 10.59Q25.37 10.82 25.37 11.09L25.37 11.09L25.37 11.09Q25.37 11.76 25.63 12.03L25.63 12.03L25.63 12.03Q25.89 12.29 26.40 12.29L26.40 12.29L26.40 12.29Q27.33 12.29 28.10 11.82ZM35.80 11.33L35.80 12.63L30.62 12.63L34.33 6.89L31.64 6.89L31.64 6.89Q31.36 7.01 31.36 7.77L31.36 7.77L31.07 7.77L31.07 6.47L35.91 6.47L32.20 12.21L35.22 12.21L35.22 12.21Q35.50 12.08 35.50 11.33L35.50 11.33L35.80 11.33ZM37.29 12.51L37.29 12.51L37.29 12.51Q37.03 12.25 37.03 11.91L37.03 11.91L37.03 11.91Q37.03 11.58 37.26 11.30L37.26 11.30L37.26 11.30Q37.49 11.03 37.86 11.03L37.86 11.03L37.86 11.03Q38.18 11.03 38.44 11.28L38.44 11.28L38.44 11.28Q38.71 11.54 38.71 11.87L38.71 11.87L38.71 11.87Q38.71 12.21 38.47 12.49L38.47 12.49L38.47 12.49Q38.23 12.77 37.87 12.77L37.87 12.77L37.87 12.77Q37.55 12.77 37.29 12.51ZM42.66 15.32L39.63 15.32L39.63 15.02L39.63 15.02Q40.39 15.02 40.52 14.74L40.52 14.74L40.52 7.32L40.52 7.32Q40.52 7.32 39.63 7.25L39.63 7.25L39.63 6.93L39.63 6.93Q39.90 6.93 40.68 6.63L40.68 6.63L40.68 6.63Q41.45 6.33 41.78 6.33L41.78 6.33L41.78 6.79L41.78 6.79Q42.45 6.33 43.46 6.33L43.46 6.33L43.46 6.33Q43.92 6.33 44.37 6.49L44.37 6.49L44.37 6.49Q44.83 6.65 45.28 6.99L45.28 6.99L45.28 6.99Q45.74 7.34 46.02 8.01L46.02 8.01L46.02 8.01Q46.31 8.68 46.31 9.58L46.31 9.58L46.31 9.58Q46.31 11.13 45.44 11.95L45.44 11.95L45.44 11.95Q44.58 12.77 43.15 12.77L43.15 12.77L43.15 12.77Q42.34 12.77 41.78 12.46L41.78 12.46L41.78 14.74L41.78 14.74Q41.90 15.02 42.66 15.02L42.66 15.02L42.66 15.32ZM41.78 7.25L41.78 12.01L41.78 12.01Q42.31 12.29 43.06 12.29L43.06 12.29L43.06 12.29Q43.83 12.29 44.41 11.58L44.41 11.58L44.41 11.58Q44.98 10.86 44.98 9.58L44.98 9.58L44.98 9.58Q44.98 8.72 44.48 7.76L44.48 7.76L44.48 7.76Q43.99 6.80 43.32 6.80L43.32 6.80L43.32 6.80Q42.35 6.80 41.78 7.25L41.78 7.25ZM46.63 6.47L49.35 6.47L49.35 6.76L49.35 6.76Q48.94 6.76 48.76 6.82L48.76 6.82L50.43 10.92L52.02 6.92L52.02 6.92Q51.83 6.76 51.24 6.76L51.24 6.76L51.24 6.47L53.54 6.47L53.54 6.76L53.54 6.76Q52.78 6.76 52.67 7.01L52.67 7.01L49.85 14.06L49.85 14.06Q49.59 14.71 49.17 15.02L49.17 15.02L49.17 15.02Q48.76 15.32 48.38 15.32L48.38 15.32L48.38 15.32Q48.03 15.32 47.83 15.13L47.83 15.13L47.83 15.13Q47.63 14.95 47.63 14.70L47.63 14.70L47.63 14.70Q47.63 14.49 47.77 14.32L47.77 14.32L47.77 14.32Q47.92 14.15 48.17 14.15L48.17 14.15L48.17 14.15Q48.33 14.15 48.50 14.27L48.50 14.27L48.50 14.27Q48.66 14.39 48.75 14.39L48.75 14.39L48.75 14.39Q49.04 14.39 49.14 14.14L49.14 14.14L49.74 12.63L47.52 7.04L47.52 7.04Q47.39 6.76 46.63 6.76L46.63 6.76L46.63 6.47Z"></path></g><!----><g data-v-423bf9ae="" id="7fedc177-db76-4381-bbbe-c5d747fafdbb" transform="matrix(1.5509702964985865,0,0,1.5509702964985865,-14.88208721262464,-32.570555929077855)" stroke="none" fill="#7A0404"><path d="M32.951 28.716a2 2 0 0 0-2.828 0l-19.871 19.87a2 2 0 0 0 0 2.828l19.871 19.87c.391.391.902.586 1.414.586s1.023-.195 1.414-.586a2 2 0 0 0 0-2.828L14.494 50l18.457-18.456a2 2 0 0 0 0-2.828zm56.797 19.87l-19.871-19.87a2 2 0 1 0-2.828 2.828L85.506 50 67.049 68.456a2 2 0 1 0 2.828 2.828l19.871-19.87a2 2 0 0 0 0-2.828zm-26.54-27.404a2 2 0 0 0-2.651.985l-24.75 54a2 2 0 1 0 3.636 1.666l24.75-54a2 2 0 0 0-.985-2.651z"></path></g><!----></svg>